<?xml version="1.0" encoding="UTF-8"?>
      <svg width="467px" height="660px" viewBox="0 0 467 660" version="1.1" xmlns="http://www.w3.org/2000/svg" xmlns:xlink="http://www.w3.org/1999/xlink" style="height: 150px;">
	  <style>
      <!-- .center{ -->
        <!-- position: fixed; -->
        <!-- top: 50%; -->
        <!-- left: 50%; -->
        <!-- transform: translate(-50%,-50%); -->
      <!-- } -->
      #mill{
        animation-name: rotate;
        animation-duration: 1s;
        animation-timing-function: linear;
        animation-iteration-count:infinite;
        transform: rotate(0deg);
        transform-origin: 232px 268px;
      }
      @keyframes rotate {
        from {
          transform: rotate(0deg);
        }
        to {
          transform: rotate(360deg);
        }
      }
    </style>
          <defs>
              <polygon id="path-1" points="0.0340237154 0.391954023 52.7022979 0.391954023 52.7022979 280.625299 0.0340237154 280.625299"></polygon>
              <polygon id="path-3" points="0.986001081 0.391954023 21.9404173 0.391954023 21.9404173 40.4712759 0.986001081 40.4712759"></polygon>
          </defs>
          <g id="Welcome" stroke="none" stroke-width="1" fill="none" fill-rule="evenodd">
              <g id="0.1---Landing" transform="translate(-91.000000, -267.000000)">
                  <g id="Group-50" transform="translate(91.000000, 267.000000)">
                      <polygon id="Fill-4" fill="#D5D9DA" points="255 643 209 643 217.408915 292 246.591085 292"></polygon>
                      <polygon id="Fill-5" fill="#F7F7F7" points="226 292 217.151017 292 209 643 224.388893 643"></polygon>
                      <polygon id="Fill-6" fill="#ADB7B9" points="237 292 245.849684 292 254 643 238.609889 643"></polygon>
                      <g id="Group-49">
                          <path d="M285.031683,659.149713 L179.788815,659.149713 C177.206432,659.149713 175.626205,656.308678 176.985553,654.109943 L182.332072,645.460402 C187.359264,637.32546 196.231002,632.37546 205.781783,632.37546 L259.038715,632.37546 C268.589496,632.37546 277.459972,637.32546 282.488426,645.460402 L287.833683,654.109943 C289.193032,656.308678 287.614067,659.149713 285.031683,659.149713" id="Fill-7" fill="#CBD0D1"></path>
                          <path d="M287.833935,654.108299 L282.488679,645.460023 C277.460225,637.326345 268.589749,632.376345 259.038968,632.376345 L238.846898,632.376345 C245.004987,632.376345 250.725106,637.326345 253.966338,645.460023 L257.413303,654.108299 C258.289244,656.308299 257.271941,659.149333 255.605887,659.149333 L285.030673,659.149333 C287.614319,659.149333 289.193284,656.308299 287.833935,654.108299" id="Fill-9" fill="#ADB7B9"></path>
                          <path d="M217.012376,654.108299 L218.496678,645.460023 C219.893892,637.326345 222.358895,632.376345 225.011959,632.376345 L211.075165,632.376345 C203.422676,632.376345 196.314178,637.326345 192.286619,645.460023 L188.004103,654.108299 C186.913595,656.308299 188.179543,659.149333 190.248227,659.149333 L217.79113,659.149333 C217.072959,659.149333 216.634989,656.308299 217.012376,654.108299" id="Fill-11" fill="#F7F7F7"></path>
                          <polygon id="Fill-13" fill="#A3B0B2" points="246.214012 314.321713 245.685166 289.842287 219.135585 289.842287 218.606739 314.321713"></polygon>
                          <path d="M249.082275,298.99631 L215.738475,298.99631 C207.636656,298.99631 201.068365,292.41654 201.068365,284.300563 L201.068365,250.898494 C201.068365,242.782517 207.636656,236.202747 215.738475,236.202747 L249.082275,236.202747 C257.184094,236.202747 263.752386,242.782517 263.752386,250.898494 L263.752386,284.300563 C263.752386,292.41654 257.184094,298.99631 249.082275,298.99631" id="Fill-15" fill="#B7BFC1"></path>
                          <path d="M249.082275,236.201989 L215.738475,236.201989 C207.636656,236.201989 201.068365,242.781759 201.068365,250.899 L201.068365,258.561069 C201.068365,250.445092 207.636656,243.865322 215.738475,243.865322 L249.082275,243.865322 C257.184094,243.865322 263.752386,250.445092 263.752386,258.561069 L263.752386,250.899 C263.752386,242.781759 257.184094,236.201989 249.082275,236.201989" id="Fill-17" fill="#CBD0D1"></path>
                          <g id="mill">

                            <g id="Group-21" transform="translate(220.752469, 0.000000)">
                                <mask id="mask-2" fill="white">
                                    <use xlink:href="#path-1"></use>
                                </mask>
                                <g id="Clip-20"></g>
                                <path d="M8.50313182,5.36357471 L0.0340237154,280.625299 L20.8117372,279.201621 L23.1707183,206.930356 C23.3650913,200.989092 29.8046426,196.163 37.932967,195.868402 C46.9523778,195.540931 53.6910616,189.686908 52.5828832,183.14254 L22.3957507,4.86035632 C21.3355345,-1.40205747 8.70886426,-0.943091954 8.50313182,5.36357471" id="Fill-19" fill="#E1E3E3" mask="url(#mask-2)"></path>
                            </g>
                            <path d="M235.631035,0.438229885 L243.92344,206.930989 C244.117813,200.98846 250.557364,196.163632 258.685689,195.86777 C267.705099,195.541563 274.442521,189.68754 273.335605,183.143172 L243.148472,4.85972414 C242.604481,1.64822989 239.023726,0.232137931 235.631035,0.438229885" id="Fill-22" fill="#F7F7F7"></path>
                            <g id="Group-26" transform="translate(227.189189, 0.000000)">
                                <mask id="mask-4" fill="white">
                                    <use xlink:href="#path-3"></use>
                                </mask>
                                <g id="Clip-25"></g>
                                <path d="M2.06641189,5.36357471 L0.986001081,40.4712759 L21.9404173,40.1867931 L15.9590308,4.86035632 C14.8988146,-1.40205747 2.27214432,-0.943091954 2.06641189,5.36357471" id="Fill-24" fill="#136C37" mask="url(#mask-4)"></path>
                            </g>
                            <path d="M235.631035,0.438229885 L237.233981,40.348 L249.129859,40.1861609 L243.148472,4.85972414 C242.604481,1.64822989 239.023726,0.232137931 235.631035,0.438229885" id="Fill-27" fill="#7DB928"></path>
                            <path d="M9.07115946,401.336011 L251.273768,271.053023 L239.653041,253.73877 L175.99463,287.827391 C170.760443,290.62923 163.369222,287.456931 159.050103,280.552218 C154.257673,272.891414 145.827692,269.971989 140.723508,274.206356 L1.68877297,389.535667 C-3.19327027,393.585437 3.51512162,404.311069 9.07115946,401.336011" id="Fill-29" fill="#E1E3E3"></path>
                            <path d="M1.62516,398.267644 L175.994125,287.827644 C170.761201,290.630747 163.368717,287.45592 159.049598,280.551207 C154.257168,272.891667 145.828449,269.972241 140.724265,274.205345 L1.68953027,389.534655 C-0.815861622,391.613276 -0.250412973,395.426609 1.62516,398.267644" id="Fill-31" fill="#F7F7F7"></path>
                            <path d="M9.07115946,401.336011 L39.9613162,384.71969 L29.2392486,366.682218 L1.68877297,389.535667 C-3.19327027,393.585437 3.51512162,404.311069 9.07115946,401.336011" id="Fill-33" fill="#136C37"></path>
                            <path d="M1.62516,398.267644 L35.3261519,376.922586 L29.2387438,366.682471 L1.68953027,389.534655 C-0.815861622,391.613276 -0.250412973,395.426609 1.62516,398.267644" id="Fill-35" fill="#7DB928"></path>
                            <path d="M464.214913,400.840253 L230.481413,255.861517 L221.323164,274.599448 L282.622594,312.782092 C287.66367,315.920253 288.61534,323.921172 284.806135,331.119218 C280.579154,339.107494 282.270451,347.880943 288.482813,350.190943 L457.703418,413.14508 C463.64694,415.355195 469.563956,404.173126 464.214913,400.840253" id="Fill-37" fill="#E1E3E3"></path>
                            <path d="M465.284848,408.834471 L282.623478,312.781713 C287.663291,315.921138 288.614961,323.920793 284.805756,331.120103 C280.580037,339.107115 282.271334,347.880563 288.482434,350.191828 L457.70304,413.144701 C460.752424,414.278839 463.767729,411.881598 465.284848,408.834471" id="Fill-39" fill="#F7F7F7"></path>
                            <path d="M464.214913,400.840253 L434.403905,382.348874 L424.171556,400.670828 L457.703418,413.14508 C463.64694,415.355195 469.563956,404.173126 464.214913,400.840253" id="Fill-41" fill="#136C37"></path>
                            <path d="M465.284848,408.834471 L429.98091,390.269759 L424.17244,400.670448 L457.70304,413.144701 C460.752424,414.278839 463.767729,411.881598 465.284848,408.834471" id="Fill-43" fill="#7DB928"></path>
                            <path d="M253.167011,267.599402 C253.167011,279.129172 243.835846,288.475379 232.326189,288.475379 C220.816532,288.475379 211.48663,279.129172 211.48663,267.599402 C211.48663,256.069632 220.816532,246.722161 232.326189,246.722161 C243.835846,246.722161 253.167011,256.069632 253.167011,267.599402" id="Fill-45" fill="#809497"></path>
                            <path d="M242.803524,267.599402 C242.803524,273.395264 238.113329,278.09492 232.326315,278.09492 C226.540564,278.09492 221.849107,273.395264 221.849107,267.599402 C221.849107,261.80354 226.540564,257.103885 232.326315,257.103885 C238.113329,257.103885 242.803524,261.80354 242.803524,267.599402" id="Fill-47" fill="#D5D9DA"></path>
                        </g>
                      </g>
                  </g>
              </g>
          </g>
      </svg>